<svg width="22" height="10" viewBox="0 0 22 10" fill="none" xmlns="http://www.w3.org/2000/svg">
<path d="M5.22013 5.05664H1.52287V8.08008H5.81779V9H0.397869V0.46875H5.7592V1.39453H1.52287V4.13672H5.22013V5.05664ZM13.224 0.46875V6.26953C13.2201 7.07422 12.9662 7.73242 12.4623 8.24414C11.9623 8.75586 11.2826 9.04297 10.4233 9.10547L10.1244 9.11719C9.19084 9.11719 8.4467 8.86523 7.89201 8.36133C7.33732 7.85742 7.05607 7.16406 7.04826 6.28125V0.46875H8.16154V6.24609C8.16154 6.86328 8.33146 7.34375 8.67131 7.6875C9.01115 8.02734 9.49553 8.19727 10.1244 8.19727C10.7612 8.19727 11.2475 8.02734 11.5834 7.6875C11.9233 7.34766 12.0932 6.86914 12.0932 6.25195V0.46875H13.224ZM18.1283 5.54883H16.1244V9H14.9936V0.46875H17.8178C18.7787 0.46875 19.517 0.6875 20.0326 1.125C20.5522 1.5625 20.8119 2.19922 20.8119 3.03516C20.8119 3.56641 20.6674 4.0293 20.3783 4.42383C20.0932 4.81836 19.6947 5.11328 19.183 5.30859L21.1869 8.92969V9H19.9799L18.1283 5.54883ZM16.1244 4.62891H17.8529C18.4115 4.62891 18.8549 4.48438 19.183 4.19531C19.5151 3.90625 19.6811 3.51953 19.6811 3.03516C19.6811 2.50781 19.5229 2.10352 19.2065 1.82227C18.894 1.54102 18.4408 1.39844 17.8471 1.39453H16.1244V4.62891Z" fill="#C6C6C6"/>
</svg>
