<svg width="23" height="10" viewBox="0 0 23 10" fill="none" xmlns="http://www.w3.org/2000/svg">
<path d="M7.14445 7.88086C6.85539 8.29492 6.45109 8.60547 5.93156 8.8125C5.41594 9.01562 4.81437 9.11719 4.12687 9.11719C3.43156 9.11719 2.81437 8.95508 2.27531 8.63086C1.73625 8.30273 1.31828 7.83789 1.0214 7.23633C0.728436 6.63477 0.578045 5.9375 0.570232 5.14453V4.40039C0.570232 3.11523 0.869061 2.11914 1.46672 1.41211C2.06828 0.705078 2.91203 0.351562 3.99797 0.351562C4.88859 0.351562 5.60539 0.580078 6.14836 1.03711C6.69133 1.49023 7.02336 2.13477 7.14445 2.9707H6.01945C5.80851 1.8418 5.13664 1.27734 4.00383 1.27734C3.24992 1.27734 2.67765 1.54297 2.28703 2.07422C1.90031 2.60156 1.705 3.36719 1.70109 4.37109V5.06836C1.70109 6.02539 1.91984 6.78711 2.35734 7.35352C2.79484 7.91602 3.38664 8.19727 4.13273 8.19727C4.55461 8.19727 4.92375 8.15039 5.24015 8.05664C5.55656 7.96289 5.81828 7.80469 6.02531 7.58203V5.66602H4.0507V4.75195H7.14445V7.88086ZM9.02531 9V0.46875H11.8144C12.7402 0.46875 13.4355 0.660156 13.9003 1.04297C14.3691 1.42578 14.6034 1.99219 14.6034 2.74219C14.6034 3.14062 14.4902 3.49414 14.2636 3.80273C14.037 4.10742 13.7284 4.34375 13.3378 4.51172C13.7987 4.64062 14.162 4.88672 14.4277 5.25C14.6972 5.60938 14.832 6.03906 14.832 6.53906C14.832 7.30469 14.5839 7.90625 14.0878 8.34375C13.5917 8.78125 12.8905 9 11.9843 9H9.02531ZM10.1503 5.00977V8.08008H12.0077C12.5312 8.08008 12.9433 7.94531 13.2441 7.67578C13.5487 7.40234 13.7011 7.02734 13.7011 6.55078C13.7011 5.52344 13.1425 5.00977 12.0253 5.00977H10.1503ZM10.1503 4.10742H11.8495C12.3417 4.10742 12.7343 3.98438 13.0273 3.73828C13.3241 3.49219 13.4726 3.1582 13.4726 2.73633C13.4726 2.26758 13.3359 1.92773 13.0624 1.7168C12.789 1.50195 12.373 1.39453 11.8144 1.39453H10.1503V4.10742ZM17.6269 5.66016V9H16.5019V0.46875H19.6484C20.582 0.46875 21.3124 0.707031 21.8398 1.18359C22.371 1.66016 22.6366 2.29102 22.6366 3.07617C22.6366 3.9043 22.3769 4.54297 21.8573 4.99219C21.3417 5.4375 20.6015 5.66016 19.6366 5.66016H17.6269ZM17.6269 4.74023H19.6484C20.2499 4.74023 20.7109 4.59961 21.0312 4.31836C21.3515 4.0332 21.5116 3.62305 21.5116 3.08789C21.5116 2.58008 21.3515 2.17383 21.0312 1.86914C20.7109 1.56445 20.2714 1.40625 19.7128 1.39453H17.6269V4.74023Z" fill="#C6C6C6"/>
</svg>
