<svg width="22" height="10" viewBox="0 0 22 10" fill="none" xmlns="http://www.w3.org/2000/svg">
<path d="M3.94999 5.54883H1.94608V9H0.815222V0.46875H3.63944C4.60038 0.46875 5.33866 0.6875 5.85428 1.125C6.37382 1.5625 6.63358 2.19922 6.63358 3.03516C6.63358 3.56641 6.48905 4.0293 6.19999 4.42383C5.91483 4.81836 5.51639 5.11328 5.00467 5.30859L7.00858 8.92969V9H5.80155L3.94999 5.54883ZM1.94608 4.62891H3.6746C4.23319 4.62891 4.67655 4.48438 5.00467 4.19531C5.33671 3.90625 5.50272 3.51953 5.50272 3.03516C5.50272 2.50781 5.34452 2.10352 5.02811 1.82227C4.71561 1.54102 4.26249 1.39844 3.66874 1.39453H1.94608V4.62891ZM14.2215 0.46875V6.26953C14.2176 7.07422 13.9637 7.73242 13.4598 8.24414C12.9598 8.75586 12.2801 9.04297 11.4207 9.10547L11.1219 9.11719C10.1883 9.11719 9.44413 8.86523 8.88944 8.36133C8.33475 7.85742 8.0535 7.16406 8.04569 6.28125V0.46875H9.15897V6.24609C9.15897 6.86328 9.32889 7.34375 9.66874 7.6875C10.0086 8.02734 10.493 8.19727 11.1219 8.19727C11.7586 8.19727 12.2449 8.02734 12.5808 7.6875C12.9207 7.34766 13.0906 6.86914 13.0906 6.25195V0.46875H14.2215ZM15.9969 9V0.46875H18.7859C19.7117 0.46875 20.407 0.660156 20.8719 1.04297C21.3406 1.42578 21.575 1.99219 21.575 2.74219C21.575 3.14062 21.4617 3.49414 21.2351 3.80273C21.0086 4.10742 20.7 4.34375 20.3094 4.51172C20.7703 4.64062 21.1336 4.88672 21.3992 5.25C21.6687 5.60938 21.8035 6.03906 21.8035 6.53906C21.8035 7.30469 21.5555 7.90625 21.0594 8.34375C20.5633 8.78125 19.8621 9 18.9558 9H15.9969ZM17.1219 5.00977V8.08008H18.9793C19.5027 8.08008 19.9148 7.94531 20.2156 7.67578C20.5203 7.40234 20.6726 7.02734 20.6726 6.55078C20.6726 5.52344 20.1141 5.00977 18.9969 5.00977H17.1219ZM17.1219 4.10742H18.8211C19.3133 4.10742 19.7058 3.98438 19.9988 3.73828C20.2957 3.49219 20.4441 3.1582 20.4441 2.73633C20.4441 2.26758 20.3074 1.92773 20.034 1.7168C19.7605 1.50195 19.3445 1.39453 18.7859 1.39453H17.1219V4.10742Z" fill="#C6C6C6"/>
</svg>
