<svg width="22" height="10" viewBox="0 0 22 10" fill="none" xmlns="http://www.w3.org/2000/svg">
<path d="M6.19963 0.46875V6.26953C6.19572 7.07422 5.94181 7.73242 5.43791 8.24414C4.93791 8.75586 4.25822 9.04297 3.39885 9.10547L3.10002 9.11719C2.16642 9.11719 1.42228 8.86523 0.867596 8.36133C0.312908 7.85742 0.0316582 7.16406 0.0238457 6.28125V0.46875H1.13713V6.24609C1.13713 6.86328 1.30705 7.34375 1.64689 7.6875C1.98674 8.02734 2.47111 8.19727 3.10002 8.19727C3.73674 8.19727 4.22306 8.02734 4.559 7.6875C4.89885 7.34766 5.06877 6.86914 5.06877 6.25195V0.46875H6.19963ZM10.4887 5.19727C9.52385 4.91992 8.82072 4.58008 8.37931 4.17773C7.94181 3.77148 7.72306 3.27148 7.72306 2.67773C7.72306 2.00586 7.99064 1.45117 8.5258 1.01367C9.06486 0.572266 9.76408 0.351562 10.6235 0.351562C11.2094 0.351562 11.7309 0.464844 12.1879 0.691406C12.6488 0.917969 13.0043 1.23047 13.2543 1.62891C13.5082 2.02734 13.6352 2.46289 13.6352 2.93555H12.5043C12.5043 2.41992 12.3403 2.01562 12.0121 1.72266C11.684 1.42578 11.2211 1.27734 10.6235 1.27734C10.0688 1.27734 9.63517 1.40039 9.32267 1.64648C9.01408 1.88867 8.85978 2.22656 8.85978 2.66016C8.85978 3.00781 9.00627 3.30273 9.29924 3.54492C9.59611 3.7832 10.0981 4.00195 10.8051 4.20117C11.516 4.40039 12.0707 4.62109 12.4692 4.86328C12.8715 5.10156 13.1684 5.38086 13.3598 5.70117C13.5551 6.02148 13.6528 6.39844 13.6528 6.83203C13.6528 7.52344 13.3832 8.07812 12.8442 8.49609C12.3051 8.91016 11.5844 9.11719 10.682 9.11719C10.0961 9.11719 9.54924 9.00586 9.04142 8.7832C8.53361 8.55664 8.14103 8.24805 7.86369 7.85742C7.59025 7.4668 7.45353 7.02344 7.45353 6.52734H8.58439C8.58439 7.04297 8.77385 7.45117 9.15275 7.75195C9.53556 8.04883 10.0453 8.19727 10.682 8.19727C11.2758 8.19727 11.7309 8.07617 12.0473 7.83398C12.3637 7.5918 12.5219 7.26172 12.5219 6.84375C12.5219 6.42578 12.3754 6.10352 12.0824 5.87695C11.7895 5.64648 11.2582 5.41992 10.4887 5.19727ZM15.1 9V0.46875H17.5082C18.2504 0.46875 18.9067 0.632812 19.477 0.960938C20.0473 1.28906 20.4867 1.75586 20.7953 2.36133C21.1078 2.9668 21.266 3.66211 21.2699 4.44727V4.99219C21.2699 5.79688 21.1137 6.50195 20.8012 7.10742C20.4926 7.71289 20.0492 8.17773 19.4711 8.50195C18.8969 8.82617 18.227 8.99219 17.4613 9H15.1ZM16.225 1.39453V8.08008H17.4086C18.2758 8.08008 18.9496 7.81055 19.4301 7.27148C19.9145 6.73242 20.1567 5.96484 20.1567 4.96875V4.4707C20.1567 3.50195 19.9281 2.75 19.4711 2.21484C19.018 1.67578 18.3735 1.40234 17.5375 1.39453H16.225Z" fill="white"/>
</svg>

